<?xml version="1.0" encoding="UTF-8" standalone="no"?>
<svg xmlns="http://www.w3.org/2000/svg" viewBox="0 0 300 300" width="300" height="300">
  <path fill="#003399" d="M150,0 C67.157,0 0,67.157 0,150 C0,232.843 67.157,300 150,300 C232.843,300 300,232.843 300,150 C300,67.157 232.843,0 150,0 Z M150,30 C216.274,30 270,83.726 270,150 C270,216.274 216.274,270 150,270 C83.726,270 30,216.274 30,150 C30,83.726 83.726,30 150,30 Z"/>
  <path fill="#003399" d="M150,60 C100.294,60 60,100.294 60,150 C60,199.706 100.294,240 150,240 C199.706,240 240,199.706 240,150 C240,100.294 199.706,60 150,60 Z M150,90 C183.137,90 210,116.863 210,150 C210,183.137 183.137,210 150,210 C116.863,210 90,183.137 90,150 C90,116.863 116.863,90 150,90 Z"/>
  <path fill="#003399" d="M150,120 C133.431,120 120,133.431 120,150 C120,166.569 133.431,180 150,180 C166.569,180 180,166.569 180,150 C180,133.431 166.569,120 150,120 Z"/>
</svg>
